<?xml version="1.0" encoding="utf-8"?>
<!-- Generator: Adobe Illustrator 27.3.1, SVG Export Plug-In . SVG Version: 6.00 Build 0)  -->
<svg version="1.1" id="Layer_1" xmlns="http://www.w3.org/2000/svg" xmlns:xlink="http://www.w3.org/1999/xlink" x="0px" y="0px"
	 viewBox="0 0 385 123" style="enable-background:new 0 0 385 123;" xml:space="preserve">
<style type="text/css">
	.st0{fill:#0D0D0D;}
</style>
<path class="st0" d="M61.8,122.84c-35.88,0-61.84-27.38-61.84-61.37c0-33.99,25.96-61.36,61.84-61.36
	c31.15,0,53.58,19.35,59.95,45.55H94.37C89.65,32.92,78.09,23.71,61.8,23.71c-21.01,0-35.4,15.81-35.4,37.76
	c0,21.95,14.4,37.76,35.4,37.76c16.28,0,27.85-9.21,32.57-21.95h27.38C115.38,103.49,92.95,122.84,61.8,122.84L61.8,122.84z"/>
<polygon class="st0" points="141.61,2.47 167.57,2.47 167.57,120.48 141.61,120.48 141.61,2.47 "/>
<path class="st0" d="M325.11,122.84c-35.88,0-61.84-27.38-61.84-61.37c0-33.99,25.96-61.36,61.84-61.36
	c31.15,0,53.58,19.35,59.95,45.55h-27.38c-4.72-12.75-16.28-21.95-32.57-21.95c-21.01,0-35.4,15.81-35.4,37.76
	c0,21.95,14.4,37.76,35.4,37.76c16.28,0,27.85-9.21,32.57-21.95h27.38C378.69,103.49,356.27,122.84,325.11,122.84L325.11,122.84z"/>
<path class="st0" d="M203.04,18.28C214.2,5.37,232.28,0.11,245.76,0.11c3.31,0,6.62,0.24,10.17,0.95v25.77
	c-5.12-0.85-9.87-0.61-13.01-0.24c-14.79,1.77-28.37,11.59-28.37,35.23v58.66h-26.01V73.62C188.54,36.18,193.95,28.78,203.04,18.28
	L203.04,18.28z"/>
</svg>
